<svg viewBox="0 0 943 1282" fill="none" xmlns="http://www.w3.org/2000/svg">
<g id="ilustracao">
<g id="fignucard">
<g id="fignu-card-verse" class="fignu-card-verse" clip-path="url(#clip0_46_5206)">
<g id="Rectangle 967" filter="url(#filter0_i_46_5206)">
<rect width="527.006" height="334.306" rx="18.2481" transform="matrix(0.829038 0.559193 -0.292372 0.956305 190.742 74)" fill="url(#paint0_linear_46_5206)"/>
</g>
<rect id="Rectangle 405" width="527.006" height="78.3529" transform="matrix(0.829038 0.559193 -0.292372 0.956305 183.699 97.0352)" fill="#D6D6D6"/>
<rect id="Rectangle 406" width="114.918" height="75.7412" rx="37.8706" transform="matrix(0.829038 0.559193 -0.292372 0.956305 157.034 241.551)" fill="url(#paint1_linear_46_5206)"/>
<text id="5032 9334 3764 9846" transform="matrix(0.829038 0.559193 -0.292372 0.956305 129.718 330.899)" fill="#FEFBFF" xml:space="preserve" style="white-space: pre" font-family="Sora" font-size="26.2773" letter-spacing="0.03em"><tspan x="0" y="27.4343">5032 9334 3764 9846</tspan></text>
<text id="gold" transform="matrix(0.829038 0.559193 -0.292372 0.956305 195.752 210.412)" fill="#F7F2FA" xml:space="preserve" style="white-space: pre" font-family="Sora" font-size="26.2773" font-weight="600" letter-spacing="0em"><tspan x="0" y="27.4343">gold</tspan></text>
<text id="02/17" transform="matrix(0.829038 0.559193 -0.292372 0.956305 142.542 389.226)" fill="#FEFBFF" xml:space="preserve" style="white-space: pre" font-family="Sora" font-size="13.1387" letter-spacing="0em"><tspan x="0" y="13.4671">02/17</tspan></text>
<text id="02/20" transform="matrix(0.829038 0.559193 -0.292372 0.956305 204.266 430.859)" fill="#FEFBFF" xml:space="preserve" style="white-space: pre" font-family="Sora" font-size="13.1387" letter-spacing="0em"><tspan x="0" y="13.4671">02/20</tspan></text>
<text id="123" transform="matrix(0.829038 0.559193 -0.292372 0.956305 273.857 477.799)" fill="#FEFBFF" xml:space="preserve" style="white-space: pre" font-family="Sora" font-size="13.1387" letter-spacing="0em"><tspan x="0" y="13.4671">123</tspan></text>
<g id="Group 300">
<text id="cirrus." transform="matrix(0.829038 0.559193 -0.292372 0.956305 478.501 622.569)" fill="#FBF9FC" xml:space="preserve" style="white-space: pre" font-family="Sora" font-size="9.48903" font-weight="600" letter-spacing="0em"><tspan x="0" y="9.72627">cirrus.</tspan></text>
<circle id="Ellipse 7" cx="22.6277" cy="22.6277" r="22.6277" transform="matrix(0.829038 0.559193 -0.292372 0.956305 474.397 566.756)" fill="#0167B2"/>
<circle id="Ellipse 8" cx="22.6277" cy="22.6277" r="22.6277" transform="matrix(0.829038 0.559193 -0.292372 0.956305 497.392 582.266)" fill="#02A1E2"/>
<path id="Intersect" fill-rule="evenodd" clip-rule="evenodd" d="M492.753 625.783C498.413 624.834 503.179 620.561 505.314 613.58C507.448 606.599 506.477 598.457 503.234 591.502C497.574 592.451 492.807 596.724 490.673 603.705C488.539 610.686 489.51 618.828 492.753 625.783Z" fill="#207CBD"/>
</g>
<text id="member since" transform="matrix(0.829038 0.559193 -0.292372 0.956305 117.697 374.994)" fill="#FEFBFF" xml:space="preserve" style="white-space: pre" font-family="Source Sans 3" font-size="4.37955" letter-spacing="0.1em"><tspan x="0" y="4.36642">MEMBER&#10;</tspan><tspan x="0" y="10.3664">SINCE</tspan></text>
<text id="valid thru" transform="matrix(0.829038 0.559193 -0.292372 0.956305 185.472 420.708)" fill="#FEFBFF" xml:space="preserve" style="white-space: pre" font-family="Source Sans 3" font-size="4.37955" letter-spacing="0.1em"><tspan x="0" y="4.36642">VALID&#10;</tspan><tspan x="0" y="10.3664">THRU</tspan></text>
<text id="security code" transform="matrix(0.829038 0.559193 -0.292372 0.956305 247.196 462.342)" fill="#FEFBFF" xml:space="preserve" style="white-space: pre" font-family="Source Sans 3" font-size="4.37955" letter-spacing="0.1em"><tspan x="0" y="4.36642">SECURITY&#10;</tspan><tspan x="0" y="10.3664">CODE</tspan></text>
<path id="Vector" d="M345.474 336.66C345.361 337.031 345.125 337.3 344.818 337.408C344.511 337.517 344.158 337.457 343.837 337.24L336.575 332.342L333.301 333.502L336.716 322.333C336.829 321.963 337.065 321.694 337.372 321.585C337.679 321.476 338.032 321.537 338.353 321.753L346.825 327.468C347.146 327.684 347.409 328.039 347.556 328.454C347.702 328.869 347.721 329.31 347.608 329.68L345.474 336.66Z" stroke="#FEFBFF" stroke-width="0.729926" stroke-linecap="round" stroke-linejoin="round"/>
<g id="Group 51">
<path id="Vector_2" d="M329.785 366.493C333.127 368.747 336.791 367.449 337.97 363.594C339.149 359.739 337.395 354.786 334.053 352.532C330.711 350.278 327.046 351.575 325.867 355.431C324.689 359.286 326.443 364.238 329.785 366.493Z" stroke="#FEFBFF" stroke-width="0.729926" stroke-linecap="round" stroke-linejoin="round"/>
<path id="Vector_3" d="M330.798 356.23C331.083 355.86 331.484 355.656 331.93 355.654C332.376 355.653 332.839 355.855 333.236 356.223C333.633 356.592 333.939 357.104 334.099 357.668C334.259 358.233 334.264 358.814 334.112 359.308C333.686 360.704 331.657 360.177 331.657 360.177" stroke="#FEFBFF" stroke-width="0.729926" stroke-linecap="round" stroke-linejoin="round"/>
<path id="Vector_4" d="M330.852 363.002L330.858 363.007" stroke="#FEFBFF" stroke-width="0.729926" stroke-linecap="round" stroke-linejoin="round"/>
</g>
<text id="Est&#195;&#161; com d&#195;&#186;vidas? Nosso app pode te ajudar." transform="matrix(0.829038 0.559193 -0.292372 0.956305 357.183 329.402)" fill="#FEFBFF" xml:space="preserve" style="white-space: pre" font-family="Source Sans 3" font-size="6.56933" letter-spacing="0em"><tspan x="0" y="7.04963">Est&#xe1; com d&#xfa;vidas?&#10;</tspan><tspan x="0" y="17.0496">Nosso app pode te ajudar.</tspan></text>
<text id="Fale com a gente: 0800 591 2117" transform="matrix(0.829038 0.559193 -0.292372 0.956305 348.219 358.719)" fill="#FEFBFF" xml:space="preserve" style="white-space: pre" font-family="Source Sans 3" font-size="6.56933" letter-spacing="0em"><tspan x="0" y="7.04963">Fale com a gente:&#10;</tspan><tspan x="0" y="17.0496">0800 591 2117</tspan></text>
<circle id="Ellipse 167" cx="22.9927" cy="22.9927" r="22.9927" transform="matrix(0.829038 0.559193 -0.292372 0.956305 194.913 284.782)" fill="#D9D9D9"/>
<path id="Subtract" fill-rule="evenodd" clip-rule="evenodd" d="M197.579 268.898L188.431 262.728C171.091 251.032 152.077 257.765 145.962 277.767C139.847 297.768 148.947 323.464 166.286 335.159L175.549 341.407C203.568 326.774 209.984 311.978 197.579 268.898Z" fill="url(#paint2_linear_46_5206)"/>
</g>
<g id="fignu-card-front" class="fignu-card-front" clip-path="url(#clip1_46_5206)">
<g id="Rectangle 968" filter="url(#filter1_i_46_5206)">
<rect width="546.625" height="346.751" rx="18.9274" transform="matrix(0.766044 -0.642788 0.469472 0.882948 268.312 705.168)" fill="url(#paint3_linear_46_5206)"/>
</g>
<text id="pedro p s dutra" transform="matrix(0.766044 -0.642788 0.469472 0.882948 516.622 823.563)" fill="#FEFBFF" xml:space="preserve" style="white-space: pre" font-family="Sora" font-size="18.1703" font-weight="600" letter-spacing="0.1em"><tspan x="0" y="18.6779">PEDRO P S DUTRA</tspan></text>
<path id="Union" fill-rule="evenodd" clip-rule="evenodd" d="M436.901 872.912C436.9 872.911 436.891 872.893 436.878 872.853C436.866 872.812 436.851 872.756 436.837 872.683C436.809 872.538 436.787 872.344 436.782 872.108C436.772 871.637 436.83 871.027 437.02 870.346C437.395 869.002 438.295 867.335 440.281 865.901C448.135 860.23 455.551 862.637 457.95 867.149L472.17 893.893C472.396 894.319 472.416 894.588 472.387 894.748C472.36 894.9 472.255 895.154 471.855 895.489L467.376 899.247C466.976 899.583 466.75 899.608 466.628 899.581C466.499 899.553 466.309 899.427 466.082 899.001L452.956 874.315C452.1 872.704 450.557 871.671 448.909 871.326C447.257 870.98 445.399 871.305 443.889 872.572L438.932 876.732L436.901 872.912L436.901 872.912ZM444.6 873.909L439.643 878.069L455.496 907.884C455.849 908.549 456.079 909.271 455.912 910.044C455.748 910.804 455.256 911.351 454.732 911.791L450.172 915.617C449.704 916.01 449.135 916.336 448.525 916.271C447.891 916.202 447.392 915.732 447.007 915.007L433.732 890.041C433.07 888.796 432.873 886.748 433.148 884.787C433.426 882.81 434.217 880.688 435.745 879.406L437.772 877.705L435.741 873.885C435.539 873.506 435.436 872.915 435.422 872.282C435.408 871.618 435.49 870.808 435.735 869.93C436.23 868.154 437.377 866.142 439.657 864.496C447.971 858.494 456.244 860.786 459.11 866.176L473.33 892.92C473.65 893.522 473.85 894.219 473.716 894.972C473.581 895.734 473.143 896.342 472.566 896.826L468.087 900.584C467.51 901.069 466.895 901.344 466.283 901.209C465.679 901.076 465.243 900.577 464.922 899.975L451.796 875.288C451.165 874.102 449.962 873.246 448.576 872.957C447.194 872.667 445.73 872.961 444.6 873.909ZM436.456 880.743L438.483 879.042L454.336 908.858C454.628 909.408 454.618 909.652 454.598 909.746C454.575 909.853 454.475 910.073 454.021 910.454L449.461 914.28C449.115 914.571 448.892 914.638 448.752 914.623C448.636 914.611 448.428 914.525 448.167 914.034L434.892 889.067C434.46 888.255 434.248 886.656 434.489 884.938C434.728 883.236 435.379 881.646 436.456 880.743ZM498.957 880.079C498.957 880.078 498.966 880.095 498.979 880.138C498.992 880.179 499.007 880.235 499.021 880.307C499.049 880.453 499.071 880.646 499.076 880.882C499.086 881.353 499.028 881.963 498.838 882.644C498.463 883.989 497.563 885.656 495.577 887.09C487.722 892.761 480.307 890.354 477.908 885.841L463.688 859.098C463.461 858.672 463.442 858.403 463.47 858.242C463.497 858.09 463.603 857.837 464.002 857.501L468.481 853.743C468.881 853.408 469.108 853.383 469.23 853.409C469.359 853.438 469.549 853.563 469.776 853.989L482.902 878.676C483.758 880.287 485.301 881.32 486.949 881.665C488.601 882.01 490.459 881.686 491.969 880.419L496.926 876.259L498.957 880.079ZM491.258 879.082L496.215 874.922L480.362 845.106C480.008 844.441 479.779 843.72 479.946 842.947C480.109 842.186 480.602 841.639 481.126 841.2L485.686 837.373C486.154 836.981 486.723 836.654 487.332 836.72C487.967 836.788 488.466 837.259 488.851 837.983L502.126 862.95C502.788 864.195 502.985 866.242 502.709 868.203C502.432 870.181 501.641 872.302 500.112 873.585L498.086 875.285L500.117 879.105C500.319 879.484 500.422 880.076 500.436 880.708C500.45 881.372 500.368 882.182 500.123 883.061C499.628 884.836 498.481 886.848 496.201 888.494C487.887 894.497 479.614 892.204 476.748 886.814L462.528 860.071C462.207 859.468 462.008 858.771 462.141 858.018C462.277 857.257 462.714 856.649 463.292 856.164L467.771 852.406C468.348 851.922 468.962 851.647 469.574 851.781C470.179 851.915 470.615 852.413 470.936 853.016L484.062 877.702C484.692 878.889 485.896 879.744 487.282 880.034C488.664 880.323 490.128 880.03 491.258 879.082ZM499.402 872.248L497.375 873.948L481.522 844.133C481.229 843.582 481.24 843.338 481.26 843.245C481.283 843.138 481.383 842.917 481.837 842.537L486.397 838.71C486.743 838.42 486.966 838.352 487.106 838.367C487.222 838.38 487.43 838.465 487.691 838.956L500.966 863.923C501.398 864.735 501.61 866.334 501.369 868.053C501.13 869.754 500.479 871.344 499.402 872.248Z" fill="#FEFBFF"/>
<circle id="Ellipse 10" cx="34.6376" cy="34.6376" r="34.6376" transform="matrix(0.766044 -0.642788 0.469472 0.882948 593.739 471.492)" fill="#E71924"/>
<circle id="Ellipse 11" cx="34.6376" cy="34.6376" r="34.6376" transform="matrix(0.766044 -0.642788 0.469472 0.882948 626.077 444.357)" fill="#F99F19"/>
<path id="Intersect_2" fill-rule="evenodd" clip-rule="evenodd" d="M665.534 490.374C656.258 490.072 647.526 484.697 642.275 474.821C637.023 464.944 636.415 452.753 639.745 441.873C649.021 442.175 657.753 447.55 663.004 457.426C668.256 467.303 668.864 479.494 665.534 490.374Z" fill="#F26520"/>
<g id="Group 301">
<rect id="Rectangle 344" x="1.00302" y="0.194966" width="74.1461" height="52.4976" rx="4.60031" transform="matrix(0.766044 -0.642788 0.469472 0.882948 369.61 770.916)" fill="url(#paint4_linear_46_5206)" stroke="#211F21" stroke-width="1.62364"/>
<path id="Vector 9" d="M378.682 785.322L395.68 771.059" stroke="#211F21" stroke-width="1.5142" stroke-linecap="round"/>
<path id="Vector 10" d="M386.558 800.136L403.183 786.185" stroke="#211F21" stroke-width="1.5142" stroke-linecap="round"/>
<path id="Vector 11" d="M426.359 766.739L442.943 752.824" stroke="#211F21" stroke-width="1.5142" stroke-linecap="round"/>
<path id="Vector 12" d="M418.487 752.612L435.32 738.488" stroke="#211F21" stroke-width="1.5142" stroke-linecap="round"/>
<circle id="Ellipse 12" cx="1.62364" cy="1.62364" r="1.62364" transform="matrix(0.766044 -0.642788 0.469472 0.882948 400.548 753.153)" fill="#211F21"/>
<g id="Vector 13">
<path d="M475.472 730.313C473.826 718.901 471.519 713.614 463.324 707.465C462.454 706.813 462.392 705.713 462.722 705.206C463.052 704.699 463.778 704.32 464.681 704.944C473.853 711.281 476.502 716.927 478.101 729.619C478.195 730.923 477.483 731.694 476.824 731.727C476.053 731.766 475.611 731.277 475.472 730.313Z" fill="#FEFBFF"/>
<path d="M459.352 711.835C459.064 712.422 459.281 713.551 460.288 714.159C466.634 718.508 468.553 722.429 469.562 731.601C469.641 732.545 470.233 733.165 470.866 732.926C471.615 732.643 471.887 731.679 471.809 730.753C470.964 720.814 468.796 716.515 461.518 711.399C460.846 710.927 459.783 710.955 459.352 711.835Z" fill="#FEFBFF"/>
<path d="M456.857 718.42C456.363 719.181 456.674 720.066 457.459 720.679C461.541 723.866 463.164 726.211 463.684 732.387C463.735 733.496 464.062 734.444 464.908 734.124C465.754 733.805 466.034 732.954 465.978 732.19C465.45 724.536 463.232 721.858 458.355 717.854C457.939 717.512 457.352 717.659 456.857 718.42Z" fill="#FEFBFF"/>
<path d="M453.521 723.984C453.153 724.984 453.45 725.783 454.584 726.547C456.972 728.185 457.7 729.62 458.014 732.999C458.128 734.509 458.662 735.91 459.619 735.453C460.575 734.996 460.763 734.348 460.515 732.628C459.708 728.231 458.757 726.161 455.687 723.548C454.925 722.842 454.096 722.811 453.521 723.984Z" fill="#FEFBFF"/>
</g>
<path id="Vector 14" d="M413.2 748.756C408.289 743.846 403.685 743.264 398.917 747.265C393.113 752.135 394.181 758.606 395.553 770.82C401.074 775.034 402.85 778.31 403.556 785.872C413.805 795.042 418.57 796.517 423.262 792.488C429.481 787.27 428.021 779.709 426.152 766.913C421.38 762.82 419.546 759.891 418.238 752.891" stroke="#211F21" stroke-width="1.5142" stroke-linecap="round"/>
</g>
</g>
</g>
<g id="fignu-shadow" filter="url(#filter2_f_46_5206)">
<ellipse cx="446.5" class="fignu-shadow" cy="1077" rx="265.5" ry="22" fill="#191919" fill-opacity="0.4"/>
</g>
</g>
<defs>
<filter id="filter0_i_46_5206" x="97.4644" y="81.4399" width="527.91" height="601.706" filterUnits="userSpaceOnUse" color-interpolation-filters="sRGB">
<feFlood flood-opacity="0" result="BackgroundImageFix"/>
<feBlend mode="normal" in="SourceGraphic" in2="BackgroundImageFix" result="shape"/>
<feColorMatrix in="SourceAlpha" type="matrix" values="0 0 0 0 0 0 0 0 0 0 0 0 0 0 0 0 0 0 127 0" result="hardAlpha"/>
<feOffset dx="2.18978" dy="2.18978"/>
<feGaussianBlur stdDeviation="2.18978"/>
<feComposite in2="hardAlpha" operator="arithmetic" k2="-1" k3="1"/>
<feColorMatrix type="matrix" values="0 0 0 0 1 0 0 0 0 1 0 0 0 0 1 0 0 0 0.25 0"/>
<feBlend mode="normal" in2="shape" result="effect1_innerShadow_46_5206"/>
</filter>
<filter id="filter1_i_46_5206" x="274.691" y="362.011" width="571.041" height="643.384" filterUnits="userSpaceOnUse" color-interpolation-filters="sRGB">
<feFlood flood-opacity="0" result="BackgroundImageFix"/>
<feBlend mode="normal" in="SourceGraphic" in2="BackgroundImageFix" result="shape"/>
<feColorMatrix in="SourceAlpha" type="matrix" values="0 0 0 0 0 0 0 0 0 0 0 0 0 0 0 0 0 0 127 0" result="hardAlpha"/>
<feOffset dx="2.27129" dy="2.27129"/>
<feGaussianBlur stdDeviation="2.27129"/>
<feComposite in2="hardAlpha" operator="arithmetic" k2="-1" k3="1"/>
<feColorMatrix type="matrix" values="0 0 0 0 1 0 0 0 0 1 0 0 0 0 1 0 0 0 0.25 0"/>
<feBlend mode="normal" in2="shape" result="effect1_innerShadow_46_5206"/>
</filter>
<filter id="filter2_f_46_5206" x="111" y="985" width="671" height="184" filterUnits="userSpaceOnUse" color-interpolation-filters="sRGB">
<feFlood flood-opacity="0" result="BackgroundImageFix"/>
<feBlend mode="normal" in="SourceGraphic" in2="BackgroundImageFix" result="shape"/>
<feGaussianBlur stdDeviation="35" result="effect1_foregroundBlur_46_5206"/>
</filter>
<linearGradient id="paint0_linear_46_5206" x1="445.32" y1="45.1313" x2="258.464" y2="384.667" gradientUnits="userSpaceOnUse">
<stop stop-color="#A950C4"/>
<stop offset="1" stop-color="#82269E"/>
</linearGradient>
<linearGradient id="paint1_linear_46_5206" x1="60.5838" y1="75.9123" x2="92.3356" y2="4.37955" gradientUnits="userSpaceOnUse">
<stop stop-color="#F6F3F7"/>
<stop offset="1" stop-color="#D6D6D6"/>
</linearGradient>
<linearGradient id="paint2_linear_46_5206" x1="199.235" y1="274.225" x2="146.3" y2="306.367" gradientUnits="userSpaceOnUse">
<stop stop-color="#F5F5F5"/>
<stop offset="1" stop-color="#D6D6D6"/>
</linearGradient>
<linearGradient id="paint3_linear_46_5206" x1="461.898" y1="46.8113" x2="268.085" y2="398.987" gradientUnits="userSpaceOnUse">
<stop stop-color="#A950C4"/>
<stop offset="1" stop-color="#82269E"/>
</linearGradient>
<linearGradient id="paint4_linear_46_5206" x1="69.389" y1="7.47819" x2="5.79283" y2="49.8757" gradientUnits="userSpaceOnUse">
<stop stop-color="#F4F4F4"/>
<stop offset="1" stop-color="#D6D6D6"/>
</linearGradient>
<clipPath id="clip0_46_5206">
<rect width="527.006" height="334.306" fill="white" transform="matrix(0.829038 0.559193 -0.292372 0.956305 190.742 74)"/>
</clipPath>
<clipPath id="clip1_46_5206">
<rect width="546.625" height="346.751" fill="white" transform="matrix(0.766044 -0.642788 0.469472 0.882948 268.312 705.168)"/>
</clipPath>
</defs>
</svg>
