<svg width="722" height="458" viewBox="0 0 722 458" fill="none" xmlns="http://www.w3.org/2000/svg">
<g clip-path="url(#clip0_609_104)">
<g filter="url(#filter0_i_609_104)">
<rect width="722" height="458" rx="25" fill="url(#paint0_linear_609_104)"/>
</g>
<path d="M226.088 357.624V354.672H229.496C230.184 354.672 230.76 354.536 231.224 354.264C231.704 353.992 232.064 353.616 232.304 353.136C232.56 352.656 232.688 352.104 232.688 351.48C232.688 350.856 232.56 350.304 232.304 349.824C232.064 349.344 231.704 348.976 231.224 348.72C230.76 348.448 230.184 348.312 229.496 348.312H226.088V345.36H229.208C230.68 345.36 231.928 345.6 232.952 346.08C233.992 346.56 234.784 347.248 235.328 348.144C235.872 349.024 236.144 350.072 236.144 351.288V351.672C236.144 352.888 235.872 353.944 235.328 354.84C234.784 355.72 233.992 356.408 232.952 356.904C231.928 357.384 230.68 357.624 229.208 357.624H226.088ZM223.16 363V345.36H226.568V363H223.16ZM241.357 363V345.48H244.693V363H241.357ZM244.213 363V360.12H252.157V363H244.213ZM244.213 355.536V352.656H251.533V355.536H244.213ZM244.213 348.36V345.48H251.965V348.36H244.213ZM260.982 363.096V359.928H264.606C265.518 359.928 266.326 359.792 267.03 359.52C267.75 359.232 268.358 358.832 268.854 358.32C269.35 357.808 269.726 357.208 269.982 356.52C270.254 355.816 270.39 355.04 270.39 354.192C270.39 353.312 270.254 352.528 269.982 351.84C269.726 351.136 269.35 350.536 268.854 350.04C268.358 349.544 267.75 349.168 267.03 348.912C266.326 348.656 265.518 348.528 264.606 348.528H260.982V345.36H264.39C265.974 345.36 267.358 345.592 268.542 346.056C269.726 346.52 270.71 347.16 271.494 347.976C272.278 348.776 272.862 349.696 273.246 350.736C273.646 351.76 273.846 352.824 273.846 353.928V354.456C273.846 355.512 273.646 356.552 273.246 357.576C272.862 358.6 272.278 359.528 271.494 360.36C270.71 361.192 269.726 361.856 268.542 362.352C267.358 362.848 265.974 363.096 264.39 363.096H260.982ZM258.054 363.096V345.36H261.462V363.096H258.054ZM279.298 363V345.36H282.706V363H279.298ZM290.002 363L284.626 355.368H288.442L293.986 363H290.002ZM281.698 357.144V354.384H286.162C286.786 354.384 287.322 354.256 287.77 354C288.234 353.744 288.594 353.384 288.85 352.92C289.106 352.456 289.234 351.928 289.234 351.336C289.234 350.728 289.106 350.192 288.85 349.728C288.594 349.264 288.234 348.904 287.77 348.648C287.322 348.392 286.786 348.264 286.162 348.264H281.698V345.36H285.802C287.21 345.36 288.426 345.568 289.45 345.984C290.49 346.4 291.29 347.032 291.85 347.88C292.41 348.728 292.69 349.792 292.69 351.072V351.456C292.69 352.752 292.402 353.816 291.826 354.648C291.266 355.48 290.474 356.104 289.45 356.52C288.426 356.936 287.21 357.144 285.802 357.144H281.698ZM306.969 363.456C305.385 363.456 304.009 363.176 302.841 362.616C301.689 362.056 300.729 361.328 299.961 360.432C299.209 359.52 298.641 358.544 298.257 357.504C297.889 356.448 297.705 355.432 297.705 354.456V353.928C297.705 352.856 297.897 351.792 298.281 350.736C298.665 349.664 299.241 348.696 300.009 347.832C300.793 346.968 301.761 346.28 302.913 345.768C304.065 345.24 305.417 344.976 306.969 344.976C308.505 344.976 309.849 345.24 311.001 345.768C312.153 346.28 313.113 346.968 313.881 347.832C314.665 348.696 315.249 349.664 315.633 350.736C316.017 351.792 316.209 352.856 316.209 353.928V354.456C316.209 355.432 316.017 356.448 315.633 357.504C315.265 358.544 314.697 359.52 313.929 360.432C313.177 361.328 312.217 362.056 311.049 362.616C309.897 363.176 308.537 363.456 306.969 363.456ZM306.969 360.288C307.865 360.288 308.665 360.128 309.369 359.808C310.089 359.488 310.697 359.048 311.193 358.488C311.705 357.912 312.089 357.264 312.345 356.544C312.617 355.808 312.753 355.032 312.753 354.216C312.753 353.336 312.617 352.528 312.345 351.792C312.089 351.056 311.705 350.416 311.193 349.872C310.697 349.328 310.089 348.904 309.369 348.6C308.649 348.296 307.849 348.144 306.969 348.144C306.073 348.144 305.265 348.296 304.545 348.6C303.825 348.904 303.209 349.328 302.697 349.872C302.201 350.416 301.817 351.056 301.545 351.792C301.289 352.528 301.161 353.336 301.161 354.216C301.161 355.032 301.289 355.808 301.545 356.544C301.817 357.264 302.201 357.912 302.697 358.488C303.209 359.048 303.825 359.488 304.545 359.808C305.265 360.128 306.073 360.288 306.969 360.288ZM332.41 357.624V354.672H335.818C336.506 354.672 337.082 354.536 337.546 354.264C338.026 353.992 338.386 353.616 338.626 353.136C338.882 352.656 339.01 352.104 339.01 351.48C339.01 350.856 338.882 350.304 338.626 349.824C338.386 349.344 338.026 348.976 337.546 348.72C337.082 348.448 336.506 348.312 335.818 348.312H332.41V345.36H335.53C337.002 345.36 338.25 345.6 339.274 346.08C340.314 346.56 341.106 347.248 341.65 348.144C342.194 349.024 342.466 350.072 342.466 351.288V351.672C342.466 352.888 342.194 353.944 341.65 354.84C341.106 355.72 340.314 356.408 339.274 356.904C338.25 357.384 337.002 357.624 335.53 357.624H332.41ZM329.482 363V345.36H332.89V363H329.482ZM361.234 363.456C359.682 363.456 358.37 363.208 357.298 362.712C356.242 362.216 355.434 361.536 354.874 360.672C354.314 359.792 354.034 358.8 354.034 357.696H357.37C357.37 358.16 357.498 358.616 357.754 359.064C358.01 359.496 358.418 359.848 358.978 360.12C359.554 360.392 360.306 360.528 361.234 360.528C362.066 360.528 362.762 360.408 363.322 360.168C363.882 359.928 364.298 359.616 364.57 359.232C364.842 358.832 364.978 358.384 364.978 357.888C364.978 357.264 364.714 356.768 364.186 356.4C363.658 356.016 362.842 355.776 361.738 355.68L360.202 355.56C358.522 355.416 357.178 354.896 356.17 354C355.178 353.088 354.682 351.888 354.682 350.4C354.682 349.28 354.946 348.32 355.474 347.52C356.002 346.704 356.738 346.08 357.682 345.648C358.642 345.2 359.762 344.976 361.042 344.976C362.37 344.976 363.514 345.208 364.474 345.672C365.434 346.136 366.178 346.792 366.706 347.64C367.234 348.472 367.498 349.456 367.498 350.592H364.162C364.162 350.112 364.042 349.672 363.802 349.272C363.578 348.856 363.234 348.528 362.77 348.288C362.322 348.032 361.746 347.904 361.042 347.904C360.37 347.904 359.81 348.016 359.362 348.24C358.914 348.464 358.578 348.768 358.354 349.152C358.13 349.536 358.018 349.952 358.018 350.4C358.018 350.944 358.218 351.424 358.618 351.84C359.018 352.24 359.65 352.472 360.514 352.536L362.05 352.68C363.298 352.776 364.394 353.04 365.338 353.472C366.282 353.904 367.01 354.488 367.522 355.224C368.05 355.96 368.314 356.848 368.314 357.888C368.314 358.992 368.026 359.968 367.45 360.816C366.874 361.648 366.05 362.296 364.978 362.76C363.922 363.224 362.674 363.456 361.234 363.456ZM384.338 363.096V359.928H387.962C388.874 359.928 389.682 359.792 390.386 359.52C391.106 359.232 391.714 358.832 392.21 358.32C392.706 357.808 393.082 357.208 393.338 356.52C393.61 355.816 393.746 355.04 393.746 354.192C393.746 353.312 393.61 352.528 393.338 351.84C393.082 351.136 392.706 350.536 392.21 350.04C391.714 349.544 391.106 349.168 390.386 348.912C389.682 348.656 388.874 348.528 387.962 348.528H384.338V345.36H387.746C389.33 345.36 390.714 345.592 391.898 346.056C393.082 346.52 394.066 347.16 394.85 347.976C395.634 348.776 396.218 349.696 396.602 350.736C397.002 351.76 397.202 352.824 397.202 353.928V354.456C397.202 355.512 397.002 356.552 396.602 357.576C396.218 358.6 395.634 359.528 394.85 360.36C394.066 361.192 393.082 361.856 391.898 362.352C390.714 362.848 389.33 363.096 387.746 363.096H384.338ZM381.41 363.096V345.36H384.818V363.096H381.41ZM409.878 363.456C408.246 363.456 406.87 363.144 405.75 362.52C404.63 361.896 403.774 361.024 403.182 359.904C402.606 358.768 402.318 357.44 402.318 355.92V345.48H405.726V356.112C405.726 356.944 405.886 357.68 406.206 358.32C406.526 358.944 406.99 359.432 407.598 359.784C408.222 360.12 408.982 360.288 409.878 360.288C410.758 360.288 411.502 360.12 412.11 359.784C412.734 359.432 413.198 358.944 413.502 358.32C413.822 357.696 413.982 356.96 413.982 356.112V345.48H417.39V355.92C417.39 357.44 417.102 358.768 416.526 359.904C415.966 361.024 415.126 361.896 414.006 362.52C412.886 363.144 411.51 363.456 409.878 363.456ZM427.189 363V348H430.597V363H427.189ZM422.125 348.48V345.48H435.661V348.48H422.125ZM440.782 363V345.36H444.19V363H440.782ZM451.486 363L446.11 355.368H449.926L455.47 363H451.486ZM443.182 357.144V354.384H447.646C448.27 354.384 448.806 354.256 449.254 354C449.718 353.744 450.078 353.384 450.334 352.92C450.59 352.456 450.718 351.928 450.718 351.336C450.718 350.728 450.59 350.192 450.334 349.728C450.078 349.264 449.718 348.904 449.254 348.648C448.806 348.392 448.27 348.264 447.646 348.264H443.182V345.36H447.286C448.694 345.36 449.91 345.568 450.934 345.984C451.974 346.4 452.774 347.032 453.334 347.88C453.894 348.728 454.174 349.792 454.174 351.072V351.456C454.174 352.752 453.886 353.816 453.31 354.648C452.75 355.48 451.958 356.104 450.934 356.52C449.91 356.936 448.694 357.144 447.286 357.144H443.182ZM458.727 363L464.703 345.48H470.271L476.415 363H472.911L467.703 347.808L468.927 348.336H465.927L467.175 347.808L462.135 363H458.727ZM462.903 358.344L463.983 355.464H471.087L472.143 358.344H462.903Z" fill="#FEFBFF"/>
<path fill-rule="evenodd" clip-rule="evenodd" d="M94.6654 319.851C94.6654 319.852 94.6657 319.826 94.6766 319.771C94.6871 319.717 94.7054 319.646 94.7347 319.559C94.7935 319.385 94.8901 319.165 95.0334 318.917C95.32 318.421 95.7759 317.841 96.4342 317.301C97.733 316.235 99.8636 315.292 103.14 315.533C116.1 316.484 123.415 325.41 123.415 332.161V372.168C123.415 372.805 123.268 373.099 123.132 373.241C123.004 373.375 122.718 373.546 122.028 373.546H114.306C113.616 373.546 113.33 373.375 113.202 373.241C113.066 373.1 112.919 372.805 112.919 372.168V335.238C112.919 332.828 111.735 330.421 109.988 328.634C108.238 326.842 105.817 325.566 103.213 325.566H94.6654V319.851ZM103.213 327.566H94.6654V372.168C94.6654 373.162 94.4817 374.108 93.7928 374.763C93.1156 375.407 92.1813 375.546 91.2784 375.546H83.4154C82.6084 375.546 81.7233 375.389 81.0382 374.792C80.3257 374.171 80.0284 373.251 80.0284 372.168V334.819C80.0284 332.956 81.0921 330.668 82.6635 328.878C84.2482 327.074 86.5354 325.566 89.1714 325.566H92.6654V319.851C92.6654 319.284 92.9171 318.582 93.3016 317.917C93.7056 317.217 94.317 316.45 95.1659 315.754C96.8815 314.347 99.525 313.262 103.287 313.538C117.005 314.545 125.415 324.098 125.415 332.161V372.168C125.415 373.069 125.212 373.963 124.575 374.626C123.931 375.297 123.024 375.546 122.028 375.546H114.306C113.311 375.546 112.403 375.297 111.759 374.626C111.123 373.963 110.919 373.069 110.919 372.168V335.238C110.919 333.463 110.026 331.534 108.558 330.031C107.093 328.532 105.161 327.566 103.213 327.566ZM89.1714 327.566H92.6654V372.168C92.6654 372.991 92.498 373.235 92.4146 373.314C92.3196 373.404 92.0604 373.546 91.2784 373.546H83.4154C82.8182 373.546 82.5098 373.422 82.3524 373.285C82.2226 373.171 82.0284 372.902 82.0284 372.168V334.819C82.0284 333.604 82.7896 331.766 84.1664 330.198C85.5299 328.645 87.3142 327.566 89.1714 327.566ZM164.111 381.128C164.111 381.13 164.11 381.156 164.1 381.209C164.089 381.262 164.071 381.333 164.042 381.42C163.983 381.595 163.886 381.814 163.743 382.063C163.457 382.559 163.001 383.139 162.342 383.679C161.043 384.744 158.913 385.687 155.636 385.447C142.676 384.495 135.361 375.569 135.361 368.819V328.812C135.361 328.175 135.508 327.88 135.644 327.739C135.772 327.605 136.058 327.434 136.748 327.434H144.471C145.16 327.434 145.446 327.605 145.575 327.739C145.71 327.88 145.858 328.175 145.858 328.812V365.741C145.858 368.151 147.042 370.559 148.788 372.346C150.539 374.137 152.96 375.414 155.563 375.414H164.111V381.128V381.128ZM155.563 373.414H164.111V328.812C164.111 327.817 164.295 326.872 164.984 326.216C165.661 325.572 166.595 325.434 167.498 325.434H175.361C176.168 325.434 177.053 325.59 177.738 326.187C178.451 326.808 178.748 327.728 178.748 328.812V366.161C178.748 368.023 177.684 370.312 176.113 372.101C174.528 373.906 172.241 375.414 169.605 375.414H166.111V381.128C166.111 381.695 165.859 382.397 165.475 383.063C165.071 383.762 164.459 384.529 163.611 385.225C161.895 386.632 159.252 387.718 155.49 387.441C141.772 386.434 133.361 376.882 133.361 368.819V328.812C133.361 327.91 133.565 327.016 134.201 326.353C134.845 325.683 135.753 325.434 136.748 325.434H144.471C145.466 325.434 146.373 325.683 147.017 326.353C147.654 327.016 147.858 327.91 147.858 328.812V365.741C147.858 367.516 148.75 369.445 150.219 370.948C151.683 372.447 153.615 373.414 155.563 373.414ZM169.605 373.414H166.111V328.812C166.111 327.988 166.279 327.745 166.362 327.666C166.457 327.575 166.716 327.434 167.498 327.434H175.361C175.958 327.434 176.267 327.558 176.424 327.695C176.554 327.808 176.748 328.077 176.748 328.812V366.161C176.748 367.376 175.987 369.214 174.61 370.782C173.247 372.334 171.462 373.414 169.605 373.414Z" fill="#FEFBFF"/>
<circle cx="581.889" cy="86.4971" r="45.7505" fill="#E71924"/>
<circle cx="637.647" cy="86.4971" r="45.7505" fill="#F99F19"/>
<path fill-rule="evenodd" clip-rule="evenodd" d="M609.768 122.595C620.636 114.23 627.64 101.092 627.64 86.3172C627.64 71.5427 620.636 58.404 609.768 50.0396C598.9 58.404 591.897 71.5427 591.897 86.3172C591.897 101.092 598.9 114.23 609.768 122.595Z" fill="#F26520"/>
<rect x="80.4209" y="156.195" width="97.9347" height="69.3406" rx="6.07624" fill="url(#paint1_linear_609_104)" stroke="#211F21" stroke-width="2.14455"/>
<path d="M80.7783 178.713H110.087" stroke="#211F21" stroke-width="2" stroke-linecap="round"/>
<path d="M80.7783 200.873H109.445" stroke="#211F21" stroke-width="2" stroke-linecap="round"/>
<path d="M149.404 200.873H177.998" stroke="#211F21" stroke-width="2" stroke-linecap="round"/>
<path d="M148.975 179.428H177.998" stroke="#211F21" stroke-width="2" stroke-linecap="round"/>
<circle cx="129.388" cy="166.561" r="2.14455" fill="#211F21"/>
<path d="M231.053 205.824C236.325 192.59 236.926 185.119 231.053 171.645C230.43 170.215 231.053 169.024 231.768 168.786C232.483 168.547 233.589 168.786 234.27 170.215C241.188 184.73 240.767 192.87 234.627 207.387C233.912 208.817 232.575 208.998 231.768 208.46C230.824 207.831 230.608 206.941 231.053 205.824Z" fill="#FEFBFF"/>
<path d="M223.547 172.717C222.832 173.075 222.375 174.43 223.19 175.934C227.999 185.94 227.801 191.662 223.19 202.026C222.686 203.071 222.998 204.226 223.905 204.528C224.977 204.886 225.913 204.125 226.406 203.098C231.701 192.084 231.84 185.756 226.406 174.147C225.905 173.075 224.619 172.181 223.547 172.717Z" fill="#FEFBFF"/>
<path d="M216.399 177.364C215.326 177.721 215.136 178.908 215.684 180.223C218.53 187.063 218.979 190.898 215.684 197.737C215.041 198.929 214.83 200.193 216.041 200.596C217.252 201 218.126 200.363 218.543 199.524C222.766 191.149 221.82 186.454 218.543 178.079C218.263 177.364 217.471 177.006 216.399 177.364Z" fill="#FEFBFF"/>
<path d="M208.893 180.223C207.82 180.938 207.668 182.022 208.535 183.797C210.344 187.564 210.303 189.68 208.535 193.448C207.713 195.11 207.463 197.022 208.893 197.38C210.322 197.737 210.957 197.229 211.752 195.235C213.578 189.987 213.756 187.02 211.752 181.653C211.291 180.261 210.322 179.508 208.893 180.223Z" fill="#FEFBFF"/>
<path d="M145.115 170.849C142.372 161.508 137.251 156.91 129.03 156.91C119.023 156.91 116.194 164.53 110.087 178.355C113.998 187.507 114.039 192.437 110.087 200.873C116.494 219.254 121.24 224.915 129.388 224.821C140.111 224.821 143.163 215.733 149.046 200.873C145.952 192.497 145.622 187.875 148.5 179.5" stroke="#211F21" stroke-width="2" stroke-linecap="round"/>
</g>
<defs>
<filter id="filter0_i_609_104" x="0" y="0" width="725" height="461" filterUnits="userSpaceOnUse" color-interpolation-filters="sRGB">
<feFlood flood-opacity="0" result="BackgroundImageFix"/>
<feBlend mode="normal" in="SourceGraphic" in2="BackgroundImageFix" result="shape"/>
<feColorMatrix in="SourceAlpha" type="matrix" values="0 0 0 0 0 0 0 0 0 0 0 0 0 0 0 0 0 0 127 0" result="hardAlpha"/>
<feOffset dx="3" dy="3"/>
<feGaussianBlur stdDeviation="3"/>
<feComposite in2="hardAlpha" operator="arithmetic" k2="-1" k3="1"/>
<feColorMatrix type="matrix" values="0 0 0 0 1 0 0 0 0 1 0 0 0 0 1 0 0 0 0.25 0"/>
<feBlend mode="normal" in2="shape" result="effect1_innerShadow_609_104"/>
</filter>
<linearGradient id="paint0_linear_609_104" x1="610.09" y1="61.83" x2="354.096" y2="526.995" gradientUnits="userSpaceOnUse">
<stop stop-color="#A950C4"/>
<stop offset="1" stop-color="#82269E"/>
</linearGradient>
<linearGradient id="paint1_linear_609_104" x1="171" y1="165" x2="87" y2="221" gradientUnits="userSpaceOnUse">
<stop stop-color="#F4F4F4"/>
<stop offset="1" stop-color="#D6D6D6"/>
</linearGradient>
<clipPath id="clip0_609_104">
<rect width="722" height="458" fill="white"/>
</clipPath>
</defs>
</svg>
